{
	"asset":{
		"generator":"Khronos glTF Blender I/O v4.5.47",
		"version":"2.0"
	},
	"extensionsUsed":[
		"KHR_materials_specular"
	],
	"scene":0,
	"scenes":[
		{
			"name":"Scene",
			"nodes":[
				0
			]
		}
	],
	"nodes":[
		{
			"mesh":0,
			"name":"mesh_all1_Texture1_0"
		}
	],
	"materials":[
		{
			"doubleSided":true,
			"extensions":{
				"KHR_materials_specular":{
					"specularFactor":0
				}
			},
			"name":"Texture1",
			"pbrMetallicRoughness":{
				"baseColorTexture":{
					"index":0
				},
				"metallicFactor":0
			}
		}
	],
	"meshes":[
		{
			"name":"mesh_all1_Texture1_0",
			"primitives":[
				{
					"attributes":{
						"POSITION":0,
						"NORMAL":1,
						"TEXCOORD_0":2
					},
					"indices":3,
					"material":0
				}
			]
		}
	],
	"textures":[
		{
			"sampler":0,
			"source":0
		}
	],
	"images":[
		{
			"mimeType":"image/png",
			"name":"viking_room",
			"uri":"viking_room.png"
		}
	],
	"accessors":[
		{
			"bufferView":0,
			"componentType":5126,
			"count":4677,
			"max":[
				1.046234130859375,
				0.9342089891433716,
				0.9472282528877258
			],
			"min":[
				-0.911596953868866,
				-1.0350059270858765,
				-0.13435690104961395
			],
			"type":"VEC3"
		},
		{
			"bufferView":1,
			"componentType":5126,
			"count":4677,
			"type":"VEC3"
		},
		{
			"bufferView":2,
			"componentType":5126,
			"count":4677,
			"type":"VEC2"
		},
		{
			"bufferView":3,
			"componentType":5123,
			"count":11484,
			"type":"SCALAR"
		}
	],
	"bufferViews":[
		{
			"buffer":0,
			"byteLength":56124,
			"byteOffset":0,
			"target":34962
		},
		{
			"buffer":0,
			"byteLength":56124,
			"byteOffset":56124,
			"target":34962
		},
		{
			"buffer":0,
			"byteLength":37416,
			"byteOffset":112248,
			"target":34962
		},
		{
			"buffer":0,
			"byteLength":22968,
			"byteOffset":149664,
			"target":34963
		}
	],
	"samplers":[
		{
			"magFilter":9729,
			"minFilter":9987
		}
	],
	"buffers":[
		{
			"byteLength":172632,
			"uri":"viking_room3.bin"
		}
	]
}
